# 3ds Max Wavefront OBJ Exporter v0.97b - (c)2007 guruware
# File Created: 01.12.2015 02:40:50

mtllib 3d-model.mtl

#
# object Group_001
#

v  -276.7034 2365.2534 71.0001
v  -418.7035 2365.2534 71.0001
v  -345.1599 2458.9001 71.0001
v  811.2966 2365.2534 71.0001
v  669.2965 2365.2534 71.0001
v  742.8401 2458.9001 71.0001
v  -833.4089 2338.9297 71.0001
v  -833.4089 2532.9297 71.0002
v  -723.4705 2532.9297 71.0002
v  -723.4705 2338.9297 71.0001
v  -707.4781 2521.7307 71.0002
v  -707.4781 2350.1287 71.0001
v  -693.6733 2363.9343 71.0001
v  -693.6733 2507.9250 71.0002
v  -682.4755 2491.9319 71.0002
v  -682.4755 2379.9275 71.0001
v  -674.2248 2474.2373 71.0001
v  -674.2248 2397.6221 71.0001
v  -669.1719 2455.3789 71.0001
v  -669.1719 2416.4805 71.0001
v  -667.4704 2435.9297 71.0001
v  583.6460 668.1083 70.9999
v  640.0754 668.1083 70.9999
v  541.6458 551.4678 70.9998
v  583.6460 1799.1084 71.0000
v  541.6458 609.1083 70.9999
v  541.6458 668.1083 70.9999
v  541.6458 886.1083 70.9999
v  541.6458 969.1083 70.9999
v  541.6458 1187.1083 70.9999
v  541.6458 1238.1083 70.9999
v  541.6458 1456.1083 71.0000
v  626.5842 2285.6770 71.0001
v  541.6458 1523.1083 71.0000
v  541.6458 1741.1083 71.0000
v  541.6458 1799.1084 71.0000
v  541.6458 2017.1083 71.0001
v  495.5842 2285.6770 71.0001
v  476.9037 2283.7219 71.0001
v  342.9037 2283.7219 71.0001
v  323.6459 1799.1084 71.0000
v  342.9037 2536.7219 71.0002
v  298.9037 2578.7219 71.0002
v  323.6459 391.1083 70.9998
v  287.4019 315.6297 70.9998
v  376.2416 391.1083 70.9998
v  280.7809 2557.8484 71.0002
v  245.2612 2569.4146 71.0002
v  1072.9999 2956.6855 71.0002
v  208.7190 2577.5164 71.0002
v  171.5183 2582.0728 71.0002
v  134.0305 2583.0383 71.0002
v  96.6296 2580.4036 71.0002
v  59.6886 2574.1943 71.0002
v  23.5759 2564.4729 71.0002
v  -307.7620 2576.9602 71.0002
v  -440.7620 2576.9602 71.0002
v  -616.1356 2541.6765 71.0002
v  -647.5732 2565.7993 71.0002
v  -684.1831 2580.9636 71.0002
v  -723.4705 2586.1360 71.0002
v  -999.2874 2586.1360 71.0002
v  -1073.0000 2956.6855 71.0002
v  -1073.0000 1774.6854 71.0000
v  -1064.1898 1689.4525 71.0000
v  -1048.3541 1799.1084 71.0000
v  -955.4704 2282.5474 71.0001
v  -830.3541 2017.1083 71.0001
v  -723.4705 2282.5474 71.0001
v  -830.3541 1799.1084 71.0000
v  -830.3541 1741.1083 71.0000
v  -830.3541 1523.1083 71.0000
v  -830.3541 1456.1083 71.0000
v  -776.3541 1799.1084 71.0000
v  -558.3541 2017.1083 71.0001
v  -684.1831 2287.7195 71.0001
v  -647.5732 2302.8838 71.0001
v  -616.1356 2327.0068 71.0001
v  -592.4158 2285.6770 71.0001
v  -592.0126 2358.4443 71.0001
v  -403.2193 2532.7500 71.0002
v  -576.8483 2395.0544 71.0001
v  -571.6760 2434.3416 71.0001
v  -576.8483 2473.6289 71.0001
v  -592.0126 2510.2388 71.0002
v  -461.4158 2285.6770 71.0001
v  -558.3541 1799.1084 71.0000
v  -558.3541 1741.1083 71.0000
v  -558.3541 1523.1083 71.0000
v  -558.3541 1456.1083 71.0000
v  -558.3541 1238.1083 70.9999
v  -558.3541 1187.1083 70.9999
v  -502.3541 1799.1084 71.0000
v  -284.3541 2017.1083 71.0001
v  -417.3514 2329.2927 71.0001
v  -248.3514 2329.2927 71.0001
v  -284.3541 1799.1084 71.0000
v  -284.3541 1741.1083 71.0000
v  -284.3541 1523.1083 71.0000
v  -284.3541 1456.1083 71.0000
v  -284.3541 1238.1083 70.9999
v  -284.3541 1187.1083 70.9999
v  -284.3541 969.1083 70.9999
v  -284.3541 886.1083 70.9999
v  -284.3541 668.1083 70.9999
v  -284.3541 609.1083 70.9999
v  -284.3541 391.1083 70.9998
v  -284.3541 359.2713 70.9998
v  -284.3541 308.2780 70.9998
v  -237.3541 391.1083 70.9998
v  -237.3541 1799.1084 71.0000
v  -216.5739 2285.6770 71.0001
v  -19.3540 2017.1083 71.0001
v  -94.6125 2285.6770 71.0001
v  -91.6057 2342.5916 71.0001
v  -102.0057 2350.2830 71.0001
v  -111.3770 2359.1992 71.0001
v  -119.5762 2369.2036 71.0001
v  -126.4783 2380.1433 71.0001
v  -131.9774 2391.8513 71.0001
v  -135.9899 2404.1482 71.0001
v  -138.4541 2416.8464 71.0001
v  -139.3323 2429.7517 71.0001
v  -138.6113 2442.6667 71.0001
v  -136.3020 2455.3938 71.0001
v  -132.4399 2467.7390 71.0001
v  -105.5845 2492.9072 71.0002
v  -76.2521 2515.3740 71.0002
v  -44.7351 2534.9153 71.0002
v  -11.3480 2551.3362 71.0002
v  -80.3362 2336.2422 71.0001
v  -50.7571 2322.9150 71.0001
v  -20.4811 2311.2576 71.0001
v  10.3979 2301.3062 71.0001
v  -19.3540 1799.1084 71.0000
v  -19.3540 1741.1083 71.0000
v  -19.3540 1523.1083 71.0000
v  -19.3540 1456.1083 71.0000
v  -19.3540 1238.1083 70.9999
v  -19.3540 1187.1083 70.9999
v  -19.3540 969.1083 70.9999
v  -19.3540 886.1083 70.9999
v  -19.3540 668.1083 70.9999
v  -19.3540 609.1083 70.9999
v  -19.3540 391.1083 70.9998
v  -19.3540 359.2713 70.9998
v  -19.3540 141.2713 70.9998
v  2.4358 128.9049 70.9998
v  45.6460 391.1083 70.9998
v  41.7836 2293.0918 71.0001
v  45.6460 1799.1084 71.0000
v  73.5785 2286.6401 71.0001
v  263.6459 2017.1083 71.0001
v  105.6836 2281.9709 71.0001
v  137.9990 2279.0989 71.0001
v  170.4244 2278.0330 71.0001
v  202.8588 2278.7766 71.0001
v  235.2012 2281.3271 71.0001
v  267.3511 2285.6770 71.0001
v  263.6459 1799.1084 71.0000
v  263.6459 1741.1083 71.0000
v  263.6459 1523.1083 71.0000
v  263.6459 1456.1083 71.0000
v  263.6459 1238.1083 70.9999
v  263.6459 1187.1083 70.9999
v  263.6459 969.1083 70.9999
v  263.6459 886.1083 70.9999
v  263.6459 668.1083 70.9999
v  263.6459 609.1083 70.9999
v  263.6459 391.1083 70.9998
v  263.6459 359.2713 70.9998
v  263.6459 298.6177 70.9998
v  267.3511 2360.4795 71.0001
v  257.7743 2467.7390 71.0001
v  244.5415 2351.2363 71.0001
v  220.8890 2344.4333 71.0001
v  217.7743 2467.7390 71.0001
v  196.6542 2340.1460 71.0001
v  217.7743 2509.7390 71.0002
v  172.1034 2338.4211 71.0001
v  164.9580 2534.3347 71.0002
v  147.5071 2339.2778 71.0001
v  123.1357 2342.7063 71.0001
v  106.7002 2535.0732 71.0002
v  99.2578 2348.6694 71.0001
v  76.1360 2357.1011 71.0001
v  54.0247 2367.9087 71.0001
v  53.2773 2511.8240 71.0002
v  33.1674 2380.9731 71.0001
v  14.1133 2468.6882 71.0001
v  13.7935 2396.1511 71.0001
v  -3.8838 2413.2751 71.0001
v  79.0863 174.7117 70.9998
v  45.6460 668.1083 70.9999
v  45.6460 969.1083 70.9999
v  45.6460 1238.1083 70.9999
v  45.6460 1523.1083 71.0000
v  -157.5822 221.0433 70.9998
v  -237.3541 668.1083 70.9999
v  -237.3541 969.1083 70.9999
v  -237.3541 1238.1083 70.9999
v  -237.3541 1523.1083 71.0000
v  -312.5663 331.0591 70.9998
v  -385.4393 391.1083 70.9998
v  -447.2016 446.2607 70.9998
v  -502.3541 668.1083 70.9999
v  -542.3901 539.6258 70.9998
v  -558.3541 558.2531 70.9998
v  -558.3541 609.1083 70.9999
v  -558.3541 668.1083 70.9999
v  -558.3541 886.1083 70.9999
v  -558.3541 969.1083 70.9999
v  -704.3562 740.1062 70.9999
v  -753.7708 809.0237 70.9999
v  -776.3541 969.1083 70.9999
v  -797.4976 882.7141 70.9999
v  -830.3541 969.1083 70.9999
v  -830.3541 1187.1083 70.9999
v  -830.3541 1238.1083 70.9999
v  -912.7087 1104.7537 70.9999
v  -915.6173 1110.7898 70.9999
v  -963.9078 1238.1083 70.9999
v  -841.2244 956.4043 70.9999
v  -847.3460 969.1083 70.9999
v  -776.3541 1523.1083 71.0000
v  -776.3541 1238.1083 70.9999
v  -581.8240 585.6384 70.9998
v  -652.5031 668.1083 70.9999
v  -502.3541 1523.1083 71.0000
v  -502.3541 1238.1083 70.9999
v  -502.3541 969.1083 70.9999
v  -985.0109 1301.4514 71.0000
v  -1023.0968 1435.9132 71.0000
v  -1039.2383 1520.0663 71.0000
v  -1041.1949 1530.2676 71.0000
v  -1055.3796 1604.2194 71.0000
v  -955.1675 2535.7134 71.0002
v  476.9037 2578.7219 71.0002
v  647.2380 2576.9602 71.0002
v  780.2378 2576.9602 71.0002
v  993.3873 2285.6770 71.0001
v  1063.6459 2017.1083 71.0001
v  1063.6459 1799.1084 71.0000
v  1063.6459 1741.1083 71.0000
v  1063.6459 1697.9489 71.0000
v  1072.9999 1774.6854 71.0000
v  845.6459 1523.1083 71.0000
v  845.6459 1799.1084 71.0000
v  845.6459 1238.1083 70.9999
v  839.6486 2329.2927 71.0001
v  833.4144 962.6630 70.9999
v  801.6459 969.1083 70.9999
v  801.6459 1187.1083 70.9999
v  801.6459 1238.1083 70.9999
v  801.6459 1456.1083 71.0000
v  801.6459 1523.1083 71.0000
v  801.6459 1741.1083 71.0000
v  801.6459 1799.1084 71.0000
v  801.6459 2017.1083 71.0001
v  670.6486 2329.2927 71.0001
v  583.6460 1523.1083 71.0000
v  583.6460 1238.1083 70.9999
v  583.6460 969.1083 70.9999
v  768.1382 852.6006 70.9999
v  870.6866 1039.3293 70.9999
v  955.2811 1238.1083 70.9999
v  907.9586 1115.9956 70.9999
v  871.4261 2285.6770 71.0001
v  1035.3270 1523.1083 71.0000
v  1006.0028 1398.4655 71.0000
v  1017.8126 1438.4919 71.0000
v  684.7806 2532.7500 71.0002
v  323.6459 1523.1083 71.0000
v  323.6459 1238.1083 70.9999
v  323.6459 969.1083 70.9999
v  323.6459 668.1083 70.9999
v  -653.9103 669.7504 70.9999
v  1052.3698 1605.4457 71.0000
v  -976.3929 1271.0256 71.0000
v  969.5653 1274.9685 71.0000
v  647.6422 677.0751 70.9999
v  697.0428 746.5481 70.9999
v  746.4436 816.0212 70.9999
v  -287.7870 310.6403 70.9998
v  148.7864 216.3649 70.9998
v  417.3322 426.0191 70.9998
v  477.5098 486.3979 70.9998
v  537.6874 546.7768 70.9998
v  -420.0439 419.6233 70.9998
v  -146.6085 213.4920 70.9998
v  -1165.6877 1587.9703 -71.0000
v  -1184.3942 1768.9437 -71.0000
v  -1184.3942 3068.0798 -70.9997
v  -1073.0000 2956.6855 -70.9998
v  1184.3942 3068.0798 -70.9997
v  1072.9999 2956.6855 -70.9998
v  1072.9999 1774.6854 -71.0000
v  1075.1005 1239.0193 -71.0001
v  1125.9594 1411.3948 -71.0000
v  1162.3871 1587.3860 -71.0000
v  1184.3942 1767.9211 -71.0000
v  1063.6459 1697.9489 -71.0000
v  1052.3698 1605.4457 -71.0000
v  1035.3270 1523.1083 -71.0000
v  1017.8126 1438.4919 -71.0000
v  1010.1586 1071.4410 -71.0001
v  1006.0028 1398.4655 -71.0000
v  969.5653 1274.9685 -71.0000
v  955.2811 1238.1083 -71.0001
v  931.5792 909.8082 -71.0001
v  907.9586 1115.9956 -71.0001
v  870.6866 1039.3293 -71.0001
v  839.9005 755.2284 -71.0001
v  833.4144 962.6630 -71.0001
v  768.1382 852.6006 -71.0001
v  746.4436 816.0212 -71.0001
v  735.7509 608.7609 -71.0002
v  697.0428 746.5481 -71.0001
v  647.6422 677.0751 -71.0001
v  640.0754 668.1083 -71.0001
v  619.8438 471.4092 -71.0002
v  541.6458 551.4678 -71.0002
v  537.6874 546.7768 -71.0002
v  492.9738 344.1147 -71.0002
v  477.5098 486.3980 -71.0002
v  417.3322 426.0191 -71.0002
v  376.2416 391.1083 -71.0002
v  356.0099 227.7497 -71.0002
v  287.4019 315.6297 -71.0002
v  263.6459 298.6177 -71.0002
v  209.8910 123.1115 -71.0002
v  148.7864 216.3649 -71.0002
v  79.0863 174.7117 -71.0002
v  3.8831 0.0000 -71.0003
v  2.4358 128.9049 -71.0002
v  -19.3540 141.2713 -71.0002
v  -146.6085 213.4920 -71.0002
v  -157.5822 221.0433 -71.0002
v  -205.7836 118.9922 -71.0002
v  -284.3541 308.2781 -71.0002
v  -287.7870 310.6404 -71.0002
v  -312.5663 331.0591 -71.0002
v  -354.9056 221.6067 -71.0002
v  -385.4393 391.1083 -71.0002
v  -420.0439 419.6233 -71.0002
v  -447.2016 446.2608 -71.0002
v  -494.6042 336.7217 -71.0002
v  -542.3901 539.6258 -71.0002
v  -558.3541 558.2531 -71.0002
v  -581.8240 585.6384 -71.0002
v  -623.8342 463.4763 -71.0002
v  -652.5031 668.1083 -71.0001
v  -653.9103 669.7504 -71.0001
v  -704.3562 740.1062 -71.0001
v  -741.6294 600.9224 -71.0002
v  -753.7708 809.0237 -71.0001
v  -797.4976 882.7141 -71.0001
v  -830.3541 724.6650 -71.0001
v  -841.2244 956.4043 -71.0001
v  -847.1085 748.0322 -71.0001
v  -847.3460 969.1083 -71.0001
v  -892.2894 824.1729 -71.0001
v  -912.7087 1104.7537 -71.0001
v  -915.6173 1110.7898 -71.0001
v  -939.4829 903.7053 -71.0001
v  -963.9078 1238.1083 -71.0001
v  -976.3929 1271.0256 -71.0000
v  -985.0109 1301.4514 -71.0000
v  -1018.0615 1066.7775 -71.0001
v  -1023.0968 1435.9132 -71.0000
v  -1039.2383 1520.0663 -71.0000
v  -1039.8217 1523.1083 -71.0000
v  -1041.1949 1530.2676 -71.0000
v  -1055.3796 1604.2194 -71.0000
v  -1064.1898 1689.4525 -71.0000
v  -1073.0000 1774.6854 -71.0000
v  -1082.2568 1236.0291 -71.0001
v  -1131.5885 1410.1942 -71.0000
v  -847.1085 748.0322 70.9999
v  -892.2894 824.1729 70.9999
v  -939.4829 903.7053 70.9999
v  -623.8342 463.4762 70.9998
v  -741.6294 600.9224 70.9998
v  -494.6042 336.7216 70.9998
v  931.5792 909.8082 70.9999
v  1010.1586 1071.4410 70.9999
v  839.9005 755.2284 70.9999
v  735.7509 608.7609 70.9998
v  619.8438 471.4092 70.9998
v  492.9738 344.1147 70.9998
v  356.0099 227.7497 70.9998
v  209.8910 123.1115 70.9998
v  3.8831 -0.0000 70.9997
v  -205.7836 118.9922 70.9998
v  -354.9056 221.6066 70.9998
v  -1184.3942 3068.0798 71.0003
v  1184.3942 3068.0798 71.0003
v  -1082.2568 1236.0291 70.9999
v  -1131.5885 1410.1942 71.0000
v  -1165.6877 1587.9703 71.0000
v  -1184.3942 1768.9437 71.0000
v  1184.3942 1767.9211 71.0000
v  1162.3871 1587.3860 71.0000
v  1125.9594 1411.3948 71.0000
v  1075.1005 1239.0193 70.9999
v  -1018.0615 1066.7775 70.9999
v  -830.3541 724.6650 70.9999
v  -1039.8217 1523.1083 71.0000
# 408 vertices

vn 0.0000 0.0000 -1.0000
vn -0.8371 -0.5470 -0.0000
vn -0.8600 -0.5103 -0.0000
vn -0.8813 -0.4726 -0.0000
vn -0.7305 -0.6830 -0.0000
vn -0.7867 -0.6173 -0.0000
vn -0.6687 -0.7435 -0.0000
vn 0.8805 -0.4741 -0.0000
vn 0.9167 -0.3996 -0.0000
vn 0.8383 -0.5453 -0.0000
vn 0.7903 -0.6127 -0.0000
vn 0.7369 -0.6760 -0.0000
vn 0.6785 -0.7346 -0.0000
vn 0.6154 -0.7882 -0.0000
vn 0.5481 -0.8364 -0.0000
vn 0.5130 -0.8584 -0.0000
vn -0.5307 -0.8475 -0.0000
vn -0.4936 -0.8697 -0.0000
vn -0.6020 -0.7985 -0.0000
vn 0.0000 1.0000 0.0000
vn -0.9495 -0.3139 -0.0000
vn -0.9730 -0.2307 -0.0000
vn -0.9893 -0.1457 -0.0000
vn -0.9987 -0.0515 -0.0000
vn -1.0000 0.0000 0.0000
vn 0.9982 -0.0606 -0.0000
vn 1.0000 0.0000 -0.0000
vn 0.9868 -0.1620 -0.0000
vn 0.9700 -0.2430 -0.0000
vn 0.9466 -0.3224 -0.0000
vn -0.9188 -0.3947 -0.0000
vn -0.8127 -0.5827 -0.0000
vn 0.0000 -0.0000 1.0000
vn -0.0000 -0.0000 1.0000
# 34 vertex normals

vt 0.0000 0.0000 0.0000
# 1 texture coords

g Group_001
usemtl wire_028089177
s off
f 1/1/1 2/1/1 3/1/1 
f 4/1/1 5/1/1 6/1/1 
f 7/1/1 8/1/1 9/1/1 10/1/1 
f 10/1/1 9/1/1 11/1/1 12/1/1 
f 13/1/1 12/1/1 11/1/1 14/1/1 
f 13/1/1 14/1/1 15/1/1 16/1/1 
f 16/1/1 15/1/1 17/1/1 18/1/1 
f 18/1/1 17/1/1 19/1/1 20/1/1 
f 20/1/1 19/1/1 21/1/1 
f 22/1/1 23/1/1 24/1/1 25/1/1 
f 25/1/1 24/1/1 26/1/1 27/1/1 
f 25/1/1 27/1/1 28/1/1 29/1/1 
f 25/1/1 29/1/1 30/1/1 31/1/1 
f 25/1/1 31/1/1 32/1/1 33/1/1 
f 33/1/1 32/1/1 34/1/1 35/1/1 
f 33/1/1 35/1/1 36/1/1 37/1/1 
f 38/1/1 33/1/1 37/1/1 39/1/1 
f 40/1/1 39/1/1 37/1/1 41/1/1 
f 42/1/1 40/1/1 41/1/1 43/1/1 
f 43/1/1 41/1/1 44/1/1 45/1/1 
f 45/1/1 44/1/1 46/1/1 
f 43/1/1 45/1/1 47/1/1 48/1/1 
f 49/1/1 43/1/1 48/1/1 50/1/1 
f 49/1/1 50/1/1 51/1/1 52/1/1 
f 49/1/1 52/1/1 53/1/1 54/1/1 
f 49/1/1 54/1/1 55/1/1 56/1/1 
f 49/1/1 56/1/1 57/1/1 58/1/1 
f 49/1/1 58/1/1 59/1/1 60/1/1 
f 49/1/1 60/1/1 61/1/1 62/1/1 
f 63/1/1 49/1/1 62/1/1 64/1/1 
f 65/1/1 64/1/1 62/1/1 66/1/1 
f 66/1/1 62/1/1 67/1/1 68/1/1 
f 68/1/1 67/1/1 69/1/1 70/1/1 
f 71/1/1 70/1/1 69/1/1 72/1/1 
f 73/1/1 72/1/1 69/1/1 74/1/1 
f 75/1/1 74/1/1 69/1/1 76/1/1 
f 75/1/1 76/1/1 77/1/1 78/1/1 
f 79/1/1 75/1/1 78/1/1 80/1/1 
f 81/1/1 79/1/1 80/1/1 82/1/1 
f 81/1/1 82/1/1 83/1/1 57/1/1 
f 57/1/1 83/1/1 84/1/1 85/1/1 
f 58/1/1 57/1/1 85/1/1 
f 75/1/1 79/1/1 86/1/1 87/1/1 
f 88/1/1 87/1/1 86/1/1 89/1/1 
f 90/1/1 89/1/1 86/1/1 91/1/1 
f 92/1/1 91/1/1 86/1/1 93/1/1 
f 94/1/1 93/1/1 86/1/1 95/1/1 
f 94/1/1 95/1/1 96/1/1 97/1/1 
f 98/1/1 97/1/1 96/1/1 99/1/1 
f 100/1/1 99/1/1 96/1/1 101/1/1 
f 102/1/1 101/1/1 96/1/1 103/1/1 
f 104/1/1 103/1/1 96/1/1 105/1/1 
f 106/1/1 105/1/1 96/1/1 107/1/1 
f 108/1/1 107/1/1 96/1/1 109/1/1 
f 110/1/1 109/1/1 96/1/1 111/1/1 
f 111/1/1 96/1/1 112/1/1 113/1/1 
f 113/1/1 112/1/1 114/1/1 115/1/1 
f 116/1/1 115/1/1 114/1/1 117/1/1 
f 118/1/1 117/1/1 114/1/1 119/1/1 
f 120/1/1 119/1/1 114/1/1 56/1/1 
f 121/1/1 120/1/1 56/1/1 122/1/1 
f 123/1/1 122/1/1 56/1/1 124/1/1 
f 125/1/1 124/1/1 56/1/1 126/1/1 
f 127/1/1 126/1/1 56/1/1 128/1/1 
f 129/1/1 128/1/1 56/1/1 130/1/1 
f 56/1/1 55/1/1 130/1/1 
f 113/1/1 115/1/1 131/1/1 132/1/1 
f 113/1/1 132/1/1 133/1/1 134/1/1 
f 135/1/1 113/1/1 134/1/1 136/1/1 
f 137/1/1 136/1/1 134/1/1 138/1/1 
f 139/1/1 138/1/1 134/1/1 140/1/1 
f 141/1/1 140/1/1 134/1/1 142/1/1 
f 143/1/1 142/1/1 134/1/1 144/1/1 
f 145/1/1 144/1/1 134/1/1 146/1/1 
f 147/1/1 146/1/1 134/1/1 148/1/1 
f 149/1/1 148/1/1 134/1/1 150/1/1 
f 151/1/1 149/1/1 150/1/1 152/1/1 
f 153/1/1 151/1/1 152/1/1 154/1/1 
f 153/1/1 154/1/1 155/1/1 156/1/1 
f 153/1/1 156/1/1 157/1/1 158/1/1 
f 153/1/1 158/1/1 159/1/1 160/1/1 
f 161/1/1 160/1/1 159/1/1 162/1/1 
f 163/1/1 162/1/1 159/1/1 164/1/1 
f 165/1/1 164/1/1 159/1/1 166/1/1 
f 167/1/1 166/1/1 159/1/1 168/1/1 
f 169/1/1 168/1/1 159/1/1 170/1/1 
f 171/1/1 170/1/1 159/1/1 172/1/1 
f 45/1/1 172/1/1 159/1/1 47/1/1 
f 47/1/1 159/1/1 173/1/1 174/1/1 
f 174/1/1 173/1/1 175/1/1 176/1/1 
f 177/1/1 174/1/1 176/1/1 178/1/1 
f 179/1/1 177/1/1 178/1/1 180/1/1 
f 181/1/1 179/1/1 180/1/1 182/1/1 
f 181/1/1 182/1/1 183/1/1 184/1/1 
f 184/1/1 183/1/1 185/1/1 186/1/1 
f 184/1/1 186/1/1 187/1/1 188/1/1 
f 188/1/1 187/1/1 189/1/1 190/1/1 
f 190/1/1 189/1/1 191/1/1 192/1/1 
f 170/1/1 171/1/1 193/1/1 149/1/1 
f 148/1/1 149/1/1 193/1/1 
f 168/1/1 169/1/1 149/1/1 194/1/1 
f 195/1/1 194/1/1 149/1/1 196/1/1 
f 197/1/1 196/1/1 149/1/1 151/1/1 
f 197/1/1 151/1/1 160/1/1 161/1/1 
f 196/1/1 197/1/1 162/1/1 163/1/1 
f 195/1/1 196/1/1 164/1/1 165/1/1 
f 194/1/1 195/1/1 166/1/1 167/1/1 
f 145/1/1 146/1/1 198/1/1 110/1/1 
f 109/1/1 110/1/1 198/1/1 
f 143/1/1 144/1/1 110/1/1 199/1/1 
f 200/1/1 199/1/1 110/1/1 201/1/1 
f 202/1/1 201/1/1 110/1/1 111/1/1 
f 202/1/1 111/1/1 135/1/1 136/1/1 
f 201/1/1 202/1/1 137/1/1 138/1/1 
f 200/1/1 201/1/1 139/1/1 140/1/1 
f 199/1/1 200/1/1 141/1/1 142/1/1 
f 107/1/1 108/1/1 203/1/1 204/1/1 
f 105/1/1 106/1/1 205/1/1 206/1/1 
f 206/1/1 205/1/1 207/1/1 93/1/1 
f 93/1/1 207/1/1 208/1/1 209/1/1 
f 93/1/1 209/1/1 210/1/1 211/1/1 
f 93/1/1 211/1/1 212/1/1 92/1/1 
f 212/1/1 211/1/1 213/1/1 214/1/1 
f 215/1/1 212/1/1 214/1/1 216/1/1 
f 74/1/1 215/1/1 216/1/1 217/1/1 
f 74/1/1 217/1/1 218/1/1 219/1/1 
f 73/1/1 74/1/1 219/1/1 
f 219/1/1 218/1/1 220/1/1 221/1/1 
f 219/1/1 221/1/1 222/1/1 
f 217/1/1 216/1/1 223/1/1 224/1/1 
f 225/1/1 215/1/1 74/1/1 87/1/1 
f 225/1/1 87/1/1 88/1/1 
f 226/1/1 215/1/1 225/1/1 89/1/1 
f 226/1/1 89/1/1 90/1/1 
f 215/1/1 226/1/1 91/1/1 92/1/1 
f 210/1/1 209/1/1 227/1/1 228/1/1 
f 229/1/1 206/1/1 93/1/1 97/1/1 
f 229/1/1 97/1/1 98/1/1 
f 230/1/1 206/1/1 229/1/1 99/1/1 
f 230/1/1 99/1/1 100/1/1 
f 231/1/1 206/1/1 230/1/1 101/1/1 
f 231/1/1 101/1/1 102/1/1 
f 206/1/1 231/1/1 103/1/1 104/1/1 
f 72/1/1 73/1/1 232/1/1 233/1/1 
f 72/1/1 233/1/1 234/1/1 
f 70/1/1 71/1/1 235/1/1 66/1/1 
f 66/1/1 235/1/1 236/1/1 65/1/1 
f 237/1/1 67/1/1 62/1/1 
f 238/1/1 43/1/1 49/1/1 239/1/1 
f 240/1/1 239/1/1 49/1/1 241/1/1 
f 242/1/1 241/1/1 49/1/1 243/1/1 
f 244/1/1 243/1/1 49/1/1 245/1/1 
f 245/1/1 49/1/1 246/1/1 
f 243/1/1 244/1/1 247/1/1 248/1/1 
f 248/1/1 247/1/1 249/1/1 250/1/1 
f 250/1/1 249/1/1 251/1/1 252/1/1 
f 250/1/1 252/1/1 253/1/1 254/1/1 
f 250/1/1 254/1/1 255/1/1 256/1/1 
f 250/1/1 256/1/1 257/1/1 258/1/1 
f 250/1/1 258/1/1 259/1/1 260/1/1 
f 33/1/1 260/1/1 259/1/1 25/1/1 
f 258/1/1 257/1/1 261/1/1 25/1/1 
f 22/1/1 25/1/1 261/1/1 262/1/1 
f 262/1/1 261/1/1 256/1/1 255/1/1 
f 263/1/1 22/1/1 262/1/1 254/1/1 
f 263/1/1 254/1/1 253/1/1 
f 22/1/1 263/1/1 252/1/1 264/1/1 
f 264/1/1 252/1/1 251/1/1 
f 265/1/1 251/1/1 249/1/1 266/1/1 
f 265/1/1 266/1/1 267/1/1 
f 248/1/1 250/1/1 268/1/1 242/1/1 
f 242/1/1 268/1/1 241/1/1 
f 249/1/1 247/1/1 269/1/1 270/1/1 
f 270/1/1 269/1/1 271/1/1 
f 39/1/1 238/1/1 239/1/1 38/1/1 
f 272/1/1 38/1/1 239/1/1 
f 273/1/1 44/1/1 41/1/1 36/1/1 
f 273/1/1 36/1/1 35/1/1 
f 274/1/1 44/1/1 273/1/1 34/1/1 
f 274/1/1 34/1/1 32/1/1 
f 275/1/1 44/1/1 274/1/1 31/1/1 
f 275/1/1 31/1/1 30/1/1 
f 276/1/1 44/1/1 275/1/1 29/1/1 
f 276/1/1 29/1/1 28/1/1 
f 44/1/1 276/1/1 27/1/1 26/1/1 
f 256/1/1 261/1/1 257/1/1 
f 277/1/1 213/1/1 211/1/1 228/1/1 
f 228/1/1 211/1/1 210/1/1 
f 224/1/1 220/1/1 218/1/1 217/1/1 
f 269/1/1 247/1/1 244/1/1 278/1/1 
f 278/1/1 244/1/1 245/1/1 
f 212/1/1 215/1/1 92/1/1 
f 252/1/1 263/1/1 253/1/1 
f 105/1/1 206/1/1 104/1/1 
f 101/1/1 230/1/1 100/1/1 
f 34/1/1 273/1/1 35/1/1 
f 29/1/1 275/1/1 30/1/1 
f 139/1/1 201/1/1 138/1/1 
f 91/1/1 226/1/1 90/1/1 
f 103/1/1 231/1/1 102/1/1 
f 279/1/1 232/1/1 73/1/1 222/1/1 
f 222/1/1 73/1/1 219/1/1 
f 266/1/1 249/1/1 270/1/1 280/1/1 
f 27/1/1 276/1/1 28/1/1 
f 99/1/1 229/1/1 98/1/1 
f 23/1/1 22/1/1 264/1/1 281/1/1 
f 282/1/1 281/1/1 264/1/1 283/1/1 
f 254/1/1 262/1/1 255/1/1 
f 97/1/1 93/1/1 94/1/1 
f 31/1/1 274/1/1 32/1/1 
f 89/1/1 225/1/1 88/1/1 
f 143/1/1 199/1/1 142/1/1 
f 87/1/1 74/1/1 75/1/1 
f 170/1/1 149/1/1 169/1/1 
f 141/1/1 200/1/1 140/1/1 
f 135/1/1 111/1/1 113/1/1 
f 243/1/1 248/1/1 242/1/1 
f 70/1/1 66/1/1 68/1/1 
f 168/1/1 194/1/1 167/1/1 
f 284/1/1 203/1/1 108/1/1 109/1/1 
f 285/1/1 193/1/1 171/1/1 172/1/1 
f 258/1/1 25/1/1 259/1/1 
f 137/1/1 202/1/1 136/1/1 
f 164/1/1 196/1/1 163/1/1 
f 160/1/1 151/1/1 153/1/1 
f 166/1/1 195/1/1 165/1/1 
f 36/1/1 41/1/1 37/1/1 
f 145/1/1 110/1/1 144/1/1 
f 208/1/1 227/1/1 209/1/1 
f 46/1/1 44/1/1 26/1/1 286/1/1 
f 287/1/1 286/1/1 26/1/1 288/1/1 
f 288/1/1 26/1/1 24/1/1 
f 289/1/1 205/1/1 106/1/1 204/1/1 
f 204/1/1 106/1/1 107/1/1 
f 162/1/1 197/1/1 161/1/1 
f 290/1/1 198/1/1 146/1/1 147/1/1 
f 291/1/1 292/1/1 293/1/1 294/1/1 
f 294/1/1 293/1/1 295/1/1 296/1/1 
f 297/1/1 296/1/1 295/1/1 298/1/1 
f 299/1/1 298/1/1 295/1/1 300/1/1 
f 300/1/1 295/1/1 301/1/1 
f 302/1/1 297/1/1 298/1/1 303/1/1 
f 304/1/1 303/1/1 298/1/1 305/1/1 
f 305/1/1 298/1/1 306/1/1 307/1/1 
f 308/1/1 307/1/1 306/1/1 309/1/1 
f 309/1/1 306/1/1 310/1/1 311/1/1 
f 312/1/1 311/1/1 310/1/1 313/1/1 
f 314/1/1 312/1/1 313/1/1 315/1/1 
f 316/1/1 315/1/1 313/1/1 317/1/1 
f 318/1/1 316/1/1 317/1/1 319/1/1 
f 320/1/1 319/1/1 317/1/1 321/1/1 
f 322/1/1 320/1/1 321/1/1 323/1/1 
f 323/1/1 321/1/1 324/1/1 325/1/1 
f 326/1/1 325/1/1 324/1/1 327/1/1 
f 327/1/1 324/1/1 328/1/1 329/1/1 
f 330/1/1 329/1/1 328/1/1 331/1/1 
f 332/1/1 330/1/1 331/1/1 333/1/1 
f 333/1/1 331/1/1 334/1/1 335/1/1 
f 336/1/1 335/1/1 334/1/1 337/1/1 
f 338/1/1 337/1/1 334/1/1 339/1/1 
f 340/1/1 338/1/1 339/1/1 341/1/1 
f 342/1/1 341/1/1 339/1/1 343/1/1 
f 344/1/1 342/1/1 343/1/1 345/1/1 
f 346/1/1 345/1/1 343/1/1 347/1/1 
f 348/1/1 346/1/1 347/1/1 349/1/1 
f 350/1/1 349/1/1 347/1/1 351/1/1 
f 352/1/1 350/1/1 351/1/1 353/1/1 
f 354/1/1 353/1/1 351/1/1 355/1/1 
f 356/1/1 354/1/1 355/1/1 357/1/1 
f 357/1/1 355/1/1 358/1/1 359/1/1 
f 359/1/1 358/1/1 360/1/1 361/1/1 
f 361/1/1 360/1/1 362/1/1 363/1/1 
f 364/1/1 363/1/1 362/1/1 365/1/1 
f 366/1/1 364/1/1 365/1/1 367/1/1 
f 368/1/1 367/1/1 365/1/1 369/1/1 
f 370/1/1 368/1/1 369/1/1 371/1/1 
f 372/1/1 371/1/1 369/1/1 373/1/1 
f 374/1/1 373/1/1 369/1/1 375/1/1 
f 376/1/1 375/1/1 369/1/1 377/1/1 
f 294/1/1 376/1/1 377/1/1 378/1/1 
f 291/1/1 294/1/1 378/1/1 
f 360/1/2 379/1/2 380/1/3 362/1/3 
f 362/1/3 380/1/3 381/1/4 365/1/4 
f 351/1/5 382/1/5 383/1/6 355/1/6 
f 351/1/5 347/1/7 384/1/7 382/1/5 
f 385/1/8 310/1/8 306/1/9 386/1/9 
f 387/1/10 313/1/10 310/1/8 385/1/8 
f 388/1/11 317/1/11 313/1/10 387/1/10 
f 389/1/12 321/1/12 317/1/11 388/1/11 
f 390/1/13 324/1/13 321/1/12 389/1/12 
f 328/1/14 324/1/13 390/1/13 391/1/14 
f 331/1/15 328/1/14 391/1/14 392/1/15 
f 334/1/16 331/1/15 392/1/15 393/1/16 
f 339/1/17 334/1/18 393/1/18 394/1/17 
f 343/1/19 339/1/17 394/1/17 395/1/19 
f 347/1/7 343/1/19 395/1/19 384/1/7 
f 295/1/20 293/1/20 396/1/20 397/1/20 
f 377/1/21 398/1/21 399/1/22 378/1/22 
f 378/1/22 399/1/22 400/1/23 291/1/23 
f 291/1/23 400/1/23 401/1/24 292/1/24 
f 292/1/24 401/1/24 396/1/25 293/1/25 
f 402/1/26 301/1/26 295/1/27 397/1/27 
f 403/1/28 300/1/28 301/1/26 402/1/26 
f 404/1/29 299/1/29 300/1/28 403/1/28 
f 405/1/30 298/1/30 299/1/29 404/1/29 
f 386/1/9 306/1/9 298/1/30 405/1/30 
f 365/1/4 381/1/4 406/1/31 369/1/31 
f 369/1/31 406/1/31 398/1/21 377/1/21 
f 355/1/6 383/1/6 407/1/32 358/1/32 
f 358/1/32 407/1/32 379/1/2 360/1/2 
f 64/1/33 398/1/33 406/1/33 65/1/33 
f 236/1/33 65/1/33 406/1/33 235/1/33 
f 408/1/33 235/1/33 406/1/33 234/1/33 
f 233/1/33 234/1/33 406/1/33 232/1/33 
f 232/1/33 406/1/33 381/1/33 279/1/33 
f 222/1/33 279/1/33 381/1/33 221/1/33 
f 221/1/33 381/1/33 380/1/33 220/1/33 
f 224/1/33 220/1/33 380/1/33 379/1/33 
f 223/1/33 224/1/33 379/1/33 407/1/33 
f 216/1/33 223/1/33 407/1/33 383/1/33 
f 214/1/33 216/1/33 383/1/33 213/1/33 
f 213/1/33 383/1/33 382/1/33 277/1/33 
f 228/1/33 277/1/33 382/1/33 227/1/33 
f 227/1/33 382/1/33 384/1/33 208/1/33 
f 207/1/33 208/1/33 384/1/33 205/1/33 
f 205/1/33 384/1/33 395/1/33 289/1/33 
f 204/1/33 289/1/33 395/1/33 203/1/33 
f 203/1/33 395/1/33 394/1/33 284/1/33 
f 109/1/33 284/1/33 394/1/33 198/1/33 
f 198/1/33 394/1/33 393/1/33 290/1/33 
f 147/1/33 290/1/33 393/1/33 148/1/33 
f 193/1/33 148/1/33 393/1/33 392/1/33 
f 285/1/33 193/1/33 392/1/33 172/1/33 
f 172/1/33 392/1/33 391/1/33 45/1/33 
f 46/1/33 45/1/33 391/1/33 390/1/33 
f 286/1/33 46/1/33 390/1/33 287/1/33 
f 288/1/33 287/1/33 390/1/33 389/1/33 
f 24/1/33 288/1/33 389/1/33 23/1/33 
f 23/1/33 389/1/33 388/1/33 281/1/33 
f 282/1/33 281/1/33 388/1/33 283/1/33 
f 283/1/33 388/1/33 387/1/33 264/1/33 
f 251/1/33 264/1/33 387/1/33 265/1/33 
f 265/1/33 387/1/33 385/1/33 267/1/33 
f 266/1/33 267/1/33 385/1/33 386/1/33 
f 280/1/33 266/1/33 386/1/33 270/1/33 
f 271/1/33 270/1/33 386/1/33 405/1/33 
f 269/1/33 271/1/33 405/1/33 278/1/33 
f 245/1/33 278/1/33 405/1/33 246/1/33 
f 49/1/33 246/1/33 405/1/33 397/1/33 
f 63/1/33 49/1/33 397/1/33 396/1/33 
f 400/1/33 63/1/33 396/1/33 401/1/33 
f 63/1/33 400/1/33 399/1/33 398/1/33 
f 63/1/33 398/1/33 64/1/33 
f 397/1/33 405/1/33 404/1/33 403/1/33 
f 397/1/33 403/1/33 402/1/33 
f 42/1/1 43/1/1 238/1/1 40/1/1 
f 40/1/1 238/1/1 39/1/1 
f 272/1/1 239/1/1 240/1/1 6/1/1 
f 4/1/1 6/1/1 240/1/1 241/1/1 
f 250/1/1 4/1/1 241/1/1 268/1/1 
f 4/1/1 250/1/1 260/1/1 5/1/1 
f 5/1/1 260/1/1 33/1/1 272/1/1 
f 272/1/1 33/1/1 38/1/1 
f 5/1/1 272/1/1 6/1/1 
f 237/1/1 62/1/1 61/1/1 8/1/1 
f 9/1/1 8/1/1 61/1/1 60/1/1 
f 11/1/1 9/1/1 60/1/1 14/1/1 
f 15/1/1 14/1/1 60/1/1 59/1/1 
f 17/1/1 15/1/1 59/1/1 19/1/1 
f 21/1/1 19/1/1 59/1/1 77/1/1 
f 20/1/1 21/1/1 77/1/1 18/1/1 
f 16/1/1 18/1/1 77/1/1 76/1/1 
f 13/1/1 16/1/1 76/1/1 12/1/1 
f 10/1/1 12/1/1 76/1/1 69/1/1 
f 7/1/1 10/1/1 69/1/1 67/1/1 
f 7/1/1 67/1/1 237/1/1 8/1/1 
f 77/1/1 59/1/1 58/1/1 78/1/1 
f 78/1/1 58/1/1 85/1/1 80/1/1 
f 80/1/1 85/1/1 84/1/1 82/1/1 
f 82/1/1 84/1/1 83/1/1 
f 192/1/1 130/1/1 55/1/1 190/1/1 
f 188/1/1 190/1/1 55/1/1 54/1/1 
f 184/1/1 188/1/1 54/1/1 53/1/1 
f 184/1/1 53/1/1 52/1/1 181/1/1 
f 181/1/1 52/1/1 51/1/1 179/1/1 
f 179/1/1 51/1/1 50/1/1 48/1/1 
f 177/1/1 179/1/1 48/1/1 174/1/1 
f 174/1/1 48/1/1 47/1/1 
f 130/1/1 192/1/1 133/1/1 129/1/1 
f 129/1/1 133/1/1 132/1/1 128/1/1 
f 128/1/1 132/1/1 131/1/1 115/1/1 
f 128/1/1 115/1/1 116/1/1 127/1/1 
f 127/1/1 116/1/1 117/1/1 118/1/1 
f 127/1/1 118/1/1 119/1/1 120/1/1 
f 126/1/1 127/1/1 120/1/1 121/1/1 
f 125/1/1 126/1/1 121/1/1 122/1/1 
f 124/1/1 125/1/1 122/1/1 123/1/1 
f 134/1/1 133/1/1 192/1/1 191/1/1 
f 150/1/1 134/1/1 191/1/1 189/1/1 
f 150/1/1 189/1/1 187/1/1 152/1/1 
f 152/1/1 187/1/1 186/1/1 154/1/1 
f 154/1/1 186/1/1 185/1/1 183/1/1 
f 155/1/1 154/1/1 183/1/1 182/1/1 
f 156/1/1 155/1/1 182/1/1 180/1/1 
f 157/1/1 156/1/1 180/1/1 178/1/1 
f 157/1/1 178/1/1 176/1/1 158/1/1 
f 158/1/1 176/1/1 175/1/1 159/1/1 
f 159/1/1 175/1/1 173/1/1 
f 81/1/1 57/1/1 56/1/1 3/1/1 
f 1/1/1 3/1/1 56/1/1 114/1/1 
f 96/1/1 1/1/1 114/1/1 112/1/1 
f 1/1/1 96/1/1 95/1/1 2/1/1 
f 2/1/1 95/1/1 86/1/1 81/1/1 
f 81/1/1 86/1/1 79/1/1 
f 2/1/1 81/1/1 3/1/1 
f 71/1/34 235/1/34 408/1/34 234/1/34 
f 71/1/34 234/1/34 72/1/34 
# 338 polygons - 79 triangles

